<?xml version="1.0" encoding="UTF-8"?>
<svg id="Layer_2" data-name="Layer 2" xmlns="http://www.w3.org/2000/svg" viewBox="0 0 2000 1293.8">
  <defs>
    <style>
      .cls-1 {
        fill: #46624b;
      }
    </style>
  </defs>
  <g id="Layer_1-2" data-name="Layer 1">
    <g>
      <path class="cls-1" d="M1091.76,0v30.51c33.53,4.41,57.18,10.59,70.92,18.56,13.74,7.98,20.62,19.38,20.62,34.23,0,8.49-1.85,18.26-5.48,29.28-6.04-3.81-12.39-8.79-19.25-14.96-42.49-38.16-106.71-37.89-149.26.22-26.93,24.11-46.02,30.09-69.05,17.93l-10.86-30.02c-3.3-9.34-4.95-17.03-4.95-23.09,0-10.43,5.77-17.86,17.32-22.26,11.54-4.39,32.7-7.69,63.48-9.89V0h-339.69v30.51c20.33,1.65,35.72,3.99,46.17,7.01,10.43,3.03,18.82,7.83,25.15,14.43,6.31,6.6,12.23,16.22,17.73,28.86l232.51,562.31h39.57l54.16-138.58-37.46-103.57c8.37-1.91,16.8-6.13,25.44-12.76.09-.07.19-.14.28-.22,8.17-6.25,19.53-6.25,27.7,0,.09.07.19.14.28.22,3.24,2.49,6.46,4.64,9.65,6.45,7.45,4.23,16.93.72,20.07-7.26l7.05-17.95c.46-1.18-.36-2.46-1.63-2.5-4.01-.14-8.08-2.33-13.67-6.61-20.99-16.08-50.24-16.07-71.23,0-6.82,5.23-11.37,7.34-16.33,6.39l-16.17-44.72c14.34-1.33,28.73-8.17,43.55-20.62,22.61-18.82,27.28-18.81,49.81-.05,10.65,8.93,21.06,14.98,31.39,18.18,7.02,2.17,14.52-1.61,17.21-8.45l9.72-24.74c.57-1.45-.81-2.91-2.29-2.41-10.25,3.43-19.3-.25-32.21-11.08-36.41-30.3-60.98-30.31-97.45.05-13.51,11.34-22.8,14.82-33.71,10.47l-14.7-40.64c20.15-.01,40.3-9.34,61.58-27.99,29.23-25.48,42.67-25.47,71.85-.03,18.04,15.8,35.24,24.9,52.33,27.33,6.61.94,13.04-2.63,15.48-8.85l12.35-31.42c.61-1.54-1-3.08-2.49-2.35-17.19,8.55-31.36,3.87-51.93-14.15-43.77-38.16-79.49-38.17-123.31.03-20.36,17.84-34.46,22.58-51.44,14.33l-13.38-36.99c26.29,1.82,52.46-9.8,80.25-34.9,26.55-23.97,67.27-23.22,93.92.64,25.65,22.97,49.93,34.46,74.2,34.46,5.71,0,9.91-3.69,12-9l15.66-37.34c9.34-23.63,15.89-35.54,23.87-46.81,7.96-11.26,18.41-19.65,31.34-25.15,12.91-5.49,32.29-10.17,58.14-14.02V0h-254.84Z"/>
      <g>
        <g>
          <path class="cls-1" d="M115.2,1153.88L0,917.49h72.58l80.91,173.13,80.58-173.13h68.59l-115.2,236.39h-72.25Z"/>
          <path class="cls-1" d="M270.69,1153.88l115.2-236.39h70.59l115.2,236.39h-70.92l-25.97-55.94h-111.54l-25.64,55.94h-66.92ZM384.56,1052.66h69.58l-34.62-74.58-34.96,74.58Z"/>
          <path class="cls-1" d="M610.29,1153.88v-236.39h66.59v187.12h141.84v49.28h-208.43Z"/>
          <path class="cls-1" d="M869.99,1153.88v-236.39h219.74v49.28h-153.16v43.95h138.18v47.27h-138.18v46.62h155.49v49.28h-222.08Z"/>
          <path class="cls-1" d="M1163.97,1153.88v-236.39h68.26l113.2,132.51h.33v-132.51h61.93v236.39h-50.94l-130.52-152.49h-.33v152.49h-61.93Z"/>
          <path class="cls-1" d="M1559.51,1153.88v-187.12h-93.89v-49.28h254.38v49.28h-93.9v187.12h-66.59Z"/>
          <path class="cls-1" d="M1777.92,1153.88v-236.39h219.74v49.28h-153.16v43.95h138.18v47.27h-138.18v46.62h155.49v49.28h-222.08Z"/>
        </g>
        <g>
          <path class="cls-1" d="M167.93,1292.98v-48.82h19.32c5.59,0,10.27,1.06,14.03,3.16,3.76,2.11,6.59,5.01,8.49,8.7,1.9,3.69,2.85,7.87,2.85,12.55,0,3.53-.54,6.79-1.62,9.77-1.08,2.98-2.68,5.56-4.81,7.74-2.13,2.18-4.78,3.88-7.94,5.09-3.16,1.22-6.83,1.82-11,1.82h-19.32ZM174.12,1288.16h13.13c4.31,0,7.89-.79,10.73-2.37,2.84-1.58,4.96-3.77,6.36-6.57,1.4-2.8,2.1-6,2.1-9.63v-2.06c0-3.67-.7-6.9-2.1-9.7-1.4-2.8-3.52-4.97-6.36-6.53-2.84-1.56-6.42-2.34-10.73-2.34h-13.13v39.2Z"/>
          <path class="cls-1" d="M276.72,1293.8c-3.85,0-7.29-.62-10.31-1.86-3.03-1.24-5.62-2.99-7.77-5.26-2.16-2.27-3.81-4.94-4.95-8.01-1.15-3.07-1.72-6.42-1.72-10.04s.57-7.04,1.72-10.11c1.15-3.07,2.79-5.74,4.92-8.01,2.13-2.27,4.72-4.03,7.77-5.3,3.05-1.26,6.5-1.89,10.35-1.89s7.29.62,10.32,1.86c3.03,1.24,5.61,3,7.77,5.29,2.16,2.29,3.79,4.98,4.92,8.05,1.12,3.07,1.69,6.44,1.69,10.11s-.56,6.97-1.69,10.04c-1.12,3.07-2.76,5.74-4.92,8.01-2.16,2.27-4.76,4.02-7.8,5.26-3.05,1.24-6.47,1.86-10.28,1.86ZM276.72,1288.85c3.85,0,7.14-.81,9.87-2.44,2.73-1.63,4.84-3.9,6.33-6.81,1.49-2.91,2.24-6.27,2.24-10.07v-1.93c0-3.85-.75-7.22-2.24-10.11-1.49-2.89-3.6-5.14-6.33-6.77-2.73-1.63-6.02-2.44-9.87-2.44s-7.09.81-9.87,2.44c-2.77,1.63-4.89,3.89-6.36,6.77-1.47,2.89-2.2,6.26-2.2,10.11v1.93c0,3.81.73,7.16,2.2,10.07,1.47,2.91,3.59,5.18,6.36,6.81,2.77,1.63,6.06,2.44,9.87,2.44Z"/>
          <path class="cls-1" d="M343.22,1292.98v-48.82h7.43l27.37,38.03h.07v-38.03h5.71v48.82h-4.95l-29.84-41.6h-.07v41.6h-5.71Z"/>
          <path class="cls-1" d="M428.07,1292.98v-48.82h19.32c5.59,0,10.27,1.06,14.03,3.16,3.76,2.11,6.59,5.01,8.49,8.7,1.9,3.69,2.85,7.87,2.85,12.55,0,3.53-.54,6.79-1.62,9.77-1.08,2.98-2.68,5.56-4.81,7.74-2.13,2.18-4.78,3.88-7.94,5.09-3.16,1.22-6.83,1.82-11,1.82h-19.32ZM434.26,1288.16h13.13c4.31,0,7.89-.79,10.73-2.37,2.84-1.58,4.96-3.77,6.36-6.57,1.4-2.8,2.1-6,2.1-9.63v-2.06c0-3.67-.7-6.9-2.1-9.7-1.4-2.8-3.52-4.97-6.36-6.53-2.84-1.56-6.42-2.34-10.73-2.34h-13.13v39.2Z"/>
          <path class="cls-1" d="M514.58,1292.98v-48.82h36.38v4.95h-32.11l1.93-2.2v43.12l-1.93-2.06h32.6v5.02h-36.86ZM519.33,1270.42v-5.02h28.68v5.02h-28.68Z"/>
          <path class="cls-1" d="M642.55,1292.98v-48.82h36.38v4.95h-32.11l1.93-2.2v43.12l-1.93-2.06h32.6v5.02h-36.86ZM647.3,1270.42v-5.02h28.68v5.02h-28.68Z"/>
          <path class="cls-1" d="M721.15,1292.98v-48.82h6.19v45.59l-1.51-1.79h29.57v5.02h-34.25Z"/>
          <path class="cls-1" d="M856.49,1292.98l-20.7-48.82h6.6l18.09,43.32h-1.03l18.02-43.32h6.46l-20.7,48.82h-6.74Z"/>
          <path class="cls-1" d="M912.05,1292.98l21.18-48.82h6.88l21.18,48.82h-6.39l-6.47-15.2-.62-1.58-11.55-27.09h.69l-11.48,27.09-.62,1.58-6.46,15.2h-6.33ZM922.23,1279.08v-4.88h28.4v4.88h-28.4Z"/>
          <path class="cls-1" d="M1000.62,1292.98v-48.82h6.19v45.59l-1.51-1.79h29.57v5.02h-34.25Z"/>
          <path class="cls-1" d="M1093.39,1293.8c-3.85,0-7.29-.62-10.31-1.86-3.03-1.24-5.62-2.99-7.77-5.26-2.16-2.27-3.81-4.94-4.95-8.01-1.15-3.07-1.72-6.42-1.72-10.04s.57-7.04,1.72-10.11c1.15-3.07,2.79-5.74,4.92-8.01,2.13-2.27,4.72-4.03,7.77-5.3,3.05-1.26,6.5-1.89,10.35-1.89s7.29.62,10.32,1.86c3.03,1.24,5.61,3,7.77,5.29,2.16,2.29,3.79,4.98,4.92,8.05,1.12,3.07,1.69,6.44,1.69,10.11s-.56,6.97-1.69,10.04c-1.12,3.07-2.76,5.74-4.92,8.01-2.16,2.27-4.76,4.02-7.8,5.26-3.05,1.24-6.47,1.86-10.28,1.86ZM1093.39,1288.85c3.85,0,7.14-.81,9.87-2.44,2.73-1.63,4.84-3.9,6.33-6.81,1.49-2.91,2.24-6.27,2.24-10.07v-1.93c0-3.85-.75-7.22-2.24-10.11-1.49-2.89-3.6-5.14-6.33-6.77-2.73-1.63-6.02-2.44-9.87-2.44s-7.09.81-9.87,2.44c-2.77,1.63-4.89,3.89-6.36,6.77-1.47,2.89-2.2,6.26-2.2,10.11v1.93c0,3.81.73,7.16,2.2,10.07,1.47,2.91,3.59,5.18,6.36,6.81,2.77,1.63,6.06,2.44,9.87,2.44Z"/>
          <path class="cls-1" d="M1159.88,1292.98v-48.82h24.34c3.76,0,6.8.61,9.11,1.82,2.31,1.22,4.02,2.89,5.12,5.02,1.1,2.13,1.65,4.55,1.65,7.25,0,2.48-.44,4.71-1.31,6.7-.87,1.99-2.24,3.63-4.09,4.92-1.86,1.28-4.28,2.18-7.25,2.68l-.28-1.86,14.51,22.28h-6.94l-13.34-20.35h-17.26v-4.88h20.01c2.48,0,4.41-.39,5.81-1.17,1.4-.78,2.41-1.82,3.03-3.13.62-1.31.93-2.74.93-4.3v-1.38c0-2.48-.75-4.54-2.24-6.19-1.49-1.65-4-2.48-7.53-2.48h-21.94l3.85-2.96v46.83h-6.19Z"/>
          <path class="cls-1" d="M1310.48,1293.8c-4.04-.05-7.58-.58-10.63-1.62-3.05-1.03-5.52-2.57-7.43-4.61-1.9-2.04-3.2-4.53-3.89-7.46l5.29-1.65c.55,2.25,1.56,4.15,3.03,5.71,1.47,1.56,3.36,2.74,5.67,3.54,2.32.8,4.96,1.23,7.94,1.27,2.24,0,4.27-.17,6.09-.52,1.81-.34,3.35-.88,4.61-1.62,1.26-.73,2.24-1.66,2.92-2.78.69-1.12,1.03-2.44,1.03-3.95,0-2.61-.81-4.5-2.44-5.67-1.63-1.17-4.09-2.07-7.39-2.72l-11.49-2.34c-3.35-.73-6.02-1.74-8.01-3.03-1.99-1.28-3.44-2.76-4.33-4.44-.89-1.67-1.34-3.45-1.34-5.33,0-2.89.84-5.32,2.51-7.29,1.67-1.97,3.98-3.46,6.91-4.47,2.93-1.01,6.3-1.51,10.11-1.51,3.53,0,6.67.39,9.42,1.17,2.75.78,5.04,2.09,6.88,3.92,1.83,1.83,3.14,4.29,3.92,7.36l-5.3,1.31c-.55-2.25-1.48-4.02-2.78-5.33-1.31-1.31-2.98-2.24-5.02-2.78-2.04-.55-4.48-.83-7.32-.83-4.49,0-7.84.72-10.04,2.17-2.2,1.44-3.3,3.38-3.3,5.81,0,1.28.29,2.44.86,3.47.57,1.03,1.57,1.94,2.99,2.72,1.42.78,3.37,1.42,5.84,1.92l11.35,2.34c3.25.64,5.91,1.52,7.98,2.65,2.06,1.12,3.58,2.54,4.54,4.26.96,1.72,1.44,3.84,1.44,6.36,0,3.12-.87,5.71-2.61,7.77-1.74,2.06-4.16,3.61-7.25,4.64-3.1,1.03-6.68,1.55-10.76,1.55Z"/>
          <path class="cls-1" d="M1372.5,1292.98v-48.82h36.38v4.95h-32.11l1.93-2.2v43.12l-1.93-2.06h32.6v5.02h-36.86ZM1377.25,1270.42v-5.02h28.68v5.02h-28.68Z"/>
          <path class="cls-1" d="M1519.18,1293.8c-4.04-.05-7.58-.58-10.63-1.62-3.05-1.03-5.52-2.57-7.43-4.61-1.9-2.04-3.2-4.53-3.89-7.46l5.29-1.65c.55,2.25,1.56,4.15,3.03,5.71,1.47,1.56,3.36,2.74,5.67,3.54,2.32.8,4.96,1.23,7.94,1.27,2.24,0,4.27-.17,6.09-.52,1.81-.34,3.35-.88,4.61-1.62,1.26-.73,2.24-1.66,2.92-2.78.69-1.12,1.03-2.44,1.03-3.95,0-2.61-.81-4.5-2.44-5.67-1.63-1.17-4.09-2.07-7.39-2.72l-11.49-2.34c-3.35-.73-6.02-1.74-8.01-3.03-1.99-1.28-3.44-2.76-4.33-4.44-.89-1.67-1.34-3.45-1.34-5.33,0-2.89.84-5.32,2.51-7.29,1.67-1.97,3.98-3.46,6.91-4.47,2.93-1.01,6.3-1.51,10.11-1.51,3.53,0,6.67.39,9.42,1.17,2.75.78,5.04,2.09,6.88,3.92,1.83,1.83,3.14,4.29,3.92,7.36l-5.3,1.31c-.55-2.25-1.48-4.02-2.78-5.33-1.31-1.31-2.98-2.24-5.02-2.78-2.04-.55-4.48-.83-7.32-.83-4.49,0-7.84.72-10.04,2.17-2.2,1.44-3.3,3.38-3.3,5.81,0,1.28.29,2.44.86,3.47.57,1.03,1.57,1.94,2.99,2.72,1.42.78,3.37,1.42,5.84,1.92l11.35,2.34c3.25.64,5.91,1.52,7.98,2.65,2.06,1.12,3.58,2.54,4.54,4.26.96,1.72,1.44,3.84,1.44,6.36,0,3.12-.87,5.71-2.61,7.77-1.74,2.06-4.16,3.61-7.25,4.64-3.1,1.03-6.68,1.55-10.76,1.55Z"/>
          <path class="cls-1" d="M1581.21,1292.98v-48.82h6.19v48.82h-6.19Z"/>
          <path class="cls-1" d="M1631.68,1292.98v-48.82h24.34c3.76,0,6.8.61,9.11,1.82,2.31,1.22,4.02,2.89,5.12,5.02,1.1,2.13,1.65,4.55,1.65,7.25,0,2.48-.44,4.71-1.31,6.7-.87,1.99-2.24,3.63-4.09,4.92-1.86,1.28-4.28,2.18-7.25,2.68l-.28-1.86,14.51,22.28h-6.94l-13.34-20.35h-17.26v-4.88h20.01c2.48,0,4.41-.39,5.81-1.17,1.4-.78,2.41-1.82,3.03-3.13.62-1.31.93-2.74.93-4.3v-1.38c0-2.48-.75-4.54-2.24-6.19-1.49-1.65-4-2.48-7.53-2.48h-21.94l3.85-2.96v46.83h-6.19Z"/>
          <path class="cls-1" d="M1728.3,1292.98l-20.7-48.82h6.6l18.09,43.32h-1.03l18.02-43.32h6.46l-20.7,48.82h-6.74Z"/>
          <path class="cls-1" d="M1795.21,1292.98v-48.82h36.38v4.95h-32.11l1.93-2.2v43.12l-1.93-2.06h32.6v5.02h-36.86ZM1799.95,1270.42v-5.02h28.68v5.02h-28.68Z"/>
        </g>
      </g>
    </g>
  </g>
</svg>