<svg width="1440" height="1024" viewBox="0 0 1440 1024" fill="none" xmlns="http://www.w3.org/2000/svg">
<g clip-path="url(#clip0_1_3)">
<rect width="1440" height="1024" fill="white"/>
<g clip-path="url(#clip1_1_3)">
<path d="M1475 -37H-35V1062H1475V-37Z" fill="url(#paint0_radial_1_3)"/>
<g clip-path="url(#clip2_1_3)">
<path opacity="0.48" d="M1306.42 1166.92C1441.64 1057.51 1265.84 697.995 913.771 363.915C561.702 29.8348 166.683 -152.3 31.4703 -42.8952C-103.742 66.51 72.0549 426.026 424.124 760.107C776.192 1094.19 1171.21 1276.32 1306.42 1166.92Z" fill="url(#paint1_radial_1_3)"/>
<path d="M1286.47 1013.54C1273.53 964.512 1230.53 926.841 1174.59 915.495C1134.72 907.412 1096.71 889.655 1065.44 862.262L1064.75 861.663C1033.49 834.27 1013.22 800.956 1004 766.022C991.048 717 948.056 679.328 892.109 667.982C852.241 659.9 814.228 642.142 782.96 614.749C751.698 587.356 731.432 554.042 722.207 519.108C709.259 470.085 666.267 432.414 610.32 421.068C570.452 412.985 532.439 395.227 501.171 367.834C469.909 340.442 449.643 307.128 440.418 272.194C427.471 223.171 384.478 185.499 328.531 174.154C288.663 166.071 250.65 148.313 219.382 120.92C188.12 93.5271 167.854 60.2131 158.63 25.2791C145.682 -23.7437 102.689 -61.4153 46.7425 -72.7608C6.87443 -80.8438 -31.1384 -98.6015 -62.4068 -125.994L-62.1685 1109.18H1347.23C1315.96 1081.78 1295.7 1048.47 1286.47 1013.54Z" fill="url(#paint2_radial_1_3)"/>
<path opacity="0.48" d="M1169.24 1319.89C1304.45 1210.48 1128.66 850.968 776.587 516.888C424.518 182.808 29.4989 0.672406 -105.713 110.078C-240.926 219.483 -65.1287 578.999 286.94 913.079C639.009 1247.16 1034.03 1429.29 1169.24 1319.89Z" fill="url(#paint3_radial_1_3)"/>
<path d="M1148.34 1123.74C1135.39 1074.72 1092.4 1037.04 1036.45 1025.7C996.582 1017.62 958.569 999.858 927.3 972.465L926.611 971.867C895.349 944.474 875.083 911.16 865.859 876.226C852.911 827.203 809.918 789.532 753.972 778.186C714.104 770.103 676.091 752.346 644.822 724.953C613.56 697.56 593.295 664.246 584.07 629.312C571.122 580.289 528.13 542.617 472.183 531.272C432.315 523.189 394.302 505.431 363.034 478.038C331.772 450.645 311.506 417.331 302.281 382.397C289.333 333.375 246.341 295.703 190.394 284.357C150.526 276.275 112.513 258.517 81.2447 231.124C49.9828 203.731 29.717 170.417 20.4924 135.483C7.5444 86.4602 -35.448 48.7886 -91.3948 37.4431C-131.263 29.3601 -169.276 11.6024 -200.544 -15.7905L-200.306 1219.38H1209.09C1177.83 1191.99 1157.56 1158.67 1148.34 1123.74Z" fill="url(#paint4_radial_1_3)"/>
<path opacity="0.48" d="M1016.4 1443.31C1159.91 1327.19 990.844 962.235 638.775 628.155C286.707 294.074 -115.04 117.383 -258.551 233.503C-402.062 349.623 -232.993 714.582 119.076 1048.66C471.145 1382.74 872.892 1559.43 1016.4 1443.31Z" fill="url(#paint5_radial_1_3)"/>
<path d="M1032.87 1219.49C1019.93 1170.46 976.934 1132.79 920.987 1121.45C881.119 1113.36 843.106 1095.61 811.838 1068.21L811.149 1067.62C779.887 1040.22 759.621 1006.91 750.396 971.974C737.448 922.952 694.456 885.28 638.509 873.935C598.641 865.852 560.628 848.094 529.36 820.701C498.098 793.308 477.832 759.994 468.608 725.06C455.66 676.037 412.667 638.366 356.721 627.02C316.852 618.937 278.84 601.179 247.571 573.786C216.309 546.394 196.043 513.08 186.819 478.146C173.871 429.123 130.879 391.451 74.9317 380.106C35.0636 372.023 -2.94928 354.265 -34.2177 326.872C-65.4796 299.479 -85.7454 266.165 -94.97 231.231C-107.918 182.208 -150.91 144.537 -206.857 133.191C-246.725 125.108 -284.738 107.351 -316.006 79.9577L-315.762 1315.13H1093.63C1062.36 1287.73 1042.1 1254.42 1032.87 1219.49Z" fill="url(#paint6_radial_1_3)"/>
</g>
</g>
</g>
<defs>
<radialGradient id="paint0_radial_1_3" cx="0" cy="0" r="1" gradientUnits="userSpaceOnUse" gradientTransform="translate(1464.32 -28.9392) scale(1948.44 1142.65)">
<stop stop-color="#003AE1"/>
<stop offset="1" stop-color="#00105B"/>
</radialGradient>
<radialGradient id="paint1_radial_1_3" cx="0" cy="0" r="1" gradientUnits="userSpaceOnUse" gradientTransform="translate(666.743 561.391) rotate(43.4983) scale(877.962 313.358)">
<stop stop-color="#AB00A1"/>
<stop offset="1" stop-color="#11478F" stop-opacity="0"/>
</radialGradient>
<radialGradient id="paint2_radial_1_3" cx="0" cy="0" r="1" gradientUnits="userSpaceOnUse" gradientTransform="translate(745.714 484.371) rotate(141.248) scale(539.04 887.54)">
<stop stop-color="#003AE1"/>
<stop offset="1" stop-color="#00105B"/>
</radialGradient>
<radialGradient id="paint3_radial_1_3" cx="0" cy="0" r="1" gradientUnits="userSpaceOnUse" gradientTransform="translate(528.951 714.822) rotate(43.4983) scale(0.744035 0.265558)">
<stop stop-color="#AB00A1"/>
<stop offset="1" stop-color="#11478F" stop-opacity="0"/>
</radialGradient>
<radialGradient id="paint4_radial_1_3" cx="0" cy="0" r="1" gradientUnits="userSpaceOnUse" gradientTransform="translate(640.415 646.582) rotate(143.869) scale(721.882 880.805)">
<stop stop-color="#003AE1"/>
<stop offset="1" stop-color="#00105B"/>
</radialGradient>
<radialGradient id="paint5_radial_1_3" cx="0" cy="0" r="1" gradientUnits="userSpaceOnUse" gradientTransform="translate(377.933 836.766) rotate(43.4983) scale(877.962 331.163)">
<stop stop-color="#AB00A1"/>
<stop offset="1" stop-color="#11478F" stop-opacity="0"/>
</radialGradient>
<radialGradient id="paint6_radial_1_3" cx="0" cy="0" r="1" gradientUnits="userSpaceOnUse" gradientTransform="translate(526.045 792.948) rotate(139.941) scale(535.898 755.608)">
<stop stop-color="#003AE1"/>
<stop offset="1" stop-color="#00105B"/>
</radialGradient>
<clipPath id="clip0_1_3">
<rect width="1440" height="1024" fill="white"/>
</clipPath>
<clipPath id="clip1_1_3">
<rect width="1510" height="1099" fill="white" transform="translate(-35 -37)"/>
</clipPath>
<clipPath id="clip2_1_3">
<rect width="1668" height="1605" fill="white" transform="translate(-316 -126)"/>
</clipPath>
</defs>
</svg>
