<svg width="1724" height="907" viewBox="0 0 1724 907" fill="none" xmlns="http://www.w3.org/2000/svg">
<path d="M688.921 377.023H613.899C611.415 377.022 609.013 377.907 607.124 379.52C605.236 381.133 603.985 383.368 603.598 385.821L573.256 578.197C573.117 579.089 573.172 580.002 573.419 580.871C573.666 581.74 574.098 582.545 574.686 583.231C575.274 583.917 576.004 584.468 576.825 584.845C577.646 585.222 578.539 585.416 579.443 585.415H615.259C617.744 585.416 620.148 584.529 622.037 582.914C623.926 581.298 625.175 579.061 625.56 576.606L633.743 524.719C634.127 522.266 635.375 520.03 637.262 518.415C639.148 516.8 641.549 515.912 644.033 515.911H667.782C717.201 515.911 745.722 491.997 753.17 444.608C756.527 423.875 753.313 407.585 743.605 396.177C732.942 383.649 714.03 377.023 688.921 377.023ZM697.576 447.284C693.473 474.204 672.905 474.204 653.017 474.204H641.696L649.638 423.93C649.871 422.459 650.62 421.119 651.753 420.152C652.885 419.185 654.325 418.653 655.814 418.653H661.003C674.55 418.653 687.33 418.653 693.934 426.376C697.872 430.983 699.079 437.828 697.576 447.284ZM913.174 446.418H877.248C875.759 446.418 874.319 446.949 873.187 447.916C872.055 448.884 871.305 450.223 871.072 451.694L869.482 461.742L866.97 458.1C859.192 446.813 841.849 443.039 824.539 443.039C784.84 443.039 750.932 473.107 744.329 515.286C740.895 536.325 745.777 556.444 757.712 570.474C768.659 583.374 784.324 588.75 802.962 588.75C834.949 588.75 852.687 568.181 852.687 568.181L851.086 578.164C850.943 579.056 850.995 579.969 851.239 580.839C851.484 581.71 851.913 582.517 852.499 583.205C853.085 583.893 853.814 584.446 854.634 584.826C855.454 585.205 856.347 585.402 857.251 585.404H889.611C892.096 585.405 894.5 584.518 896.389 582.903C898.278 581.287 899.527 579.05 899.912 576.595L919.328 453.636C919.471 452.745 919.419 451.834 919.175 450.966C918.932 450.098 918.503 449.292 917.917 448.606C917.332 447.92 916.605 447.369 915.786 446.991C914.967 446.613 914.076 446.417 913.174 446.418ZM863.098 516.339C859.631 536.863 843.341 550.641 822.564 550.641C812.132 550.641 803.795 547.295 798.442 540.955C793.133 534.658 791.114 525.696 792.804 515.713C796.04 495.365 812.604 481.137 833.062 481.137C843.264 481.137 851.557 484.526 857.02 490.922C862.494 497.383 864.666 506.4 863.098 516.339ZM1104.51 446.418H1068.41C1066.7 446.42 1065.03 446.838 1063.52 447.636C1062.02 448.433 1060.73 449.585 1059.77 450.992L1009.98 524.335L988.876 453.855C988.228 451.706 986.905 449.822 985.104 448.482C983.302 447.143 981.117 446.419 978.872 446.418H943.396C942.4 446.415 941.418 446.65 940.531 447.104C939.645 447.557 938.879 448.216 938.299 449.025C937.718 449.834 937.339 450.77 937.194 451.756C937.048 452.741 937.14 453.746 937.461 454.689L977.226 571.385L939.841 624.16C939.177 625.095 938.783 626.196 938.702 627.341C938.622 628.485 938.858 629.63 939.385 630.65C939.911 631.669 940.709 632.524 941.689 633.121C942.669 633.718 943.795 634.033 944.942 634.032H981C982.683 634.035 984.342 633.629 985.834 632.849C987.327 632.07 988.607 630.94 989.567 629.557L1109.64 456.236C1110.29 455.298 1110.67 454.2 1110.75 453.061C1110.82 451.922 1110.57 450.785 1110.05 449.773C1109.52 448.762 1108.72 447.914 1107.74 447.323C1106.77 446.731 1105.65 446.418 1104.51 446.418Z" fill="#253B80"/>
<path d="M1224.03 377.034H1149C1146.52 377.035 1144.12 377.922 1142.23 379.535C1140.35 381.148 1139.1 383.381 1138.71 385.832L1108.37 578.208C1108.23 579.099 1108.28 580.01 1108.53 580.878C1108.77 581.747 1109.2 582.552 1109.79 583.238C1110.37 583.924 1111.1 584.475 1111.92 584.852C1112.74 585.23 1113.63 585.426 1114.53 585.426H1153.04C1154.77 585.423 1156.45 584.801 1157.77 583.671C1159.09 582.541 1159.96 580.977 1160.23 579.261L1168.84 524.73C1169.23 522.277 1170.48 520.041 1172.36 518.426C1174.25 516.811 1176.65 515.923 1179.13 515.922H1202.87C1252.3 515.922 1280.81 492.008 1288.27 444.619C1291.64 423.886 1288.4 407.596 1278.7 396.187C1268.04 383.66 1249.14 377.034 1224.03 377.034ZM1232.69 447.295C1228.6 474.215 1208.03 474.215 1188.13 474.215H1176.82L1184.77 423.941C1185 422.47 1185.75 421.129 1186.88 420.161C1188.01 419.194 1189.45 418.663 1190.94 418.664H1196.13C1209.66 418.664 1222.45 418.664 1229.06 426.387C1233 430.994 1234.19 437.839 1232.69 447.295ZM1448.28 446.429H1412.37C1410.88 446.425 1409.44 446.955 1408.31 447.923C1407.18 448.891 1406.43 450.233 1406.21 451.705L1404.62 461.753L1402.09 458.111C1394.32 446.824 1376.98 443.05 1359.67 443.05C1319.97 443.05 1286.08 473.118 1279.47 515.296C1276.05 536.336 1280.91 556.455 1292.85 570.485C1303.82 583.385 1319.46 588.76 1338.1 588.76C1370.08 588.76 1387.82 568.192 1387.82 568.192L1386.22 578.175C1386.08 579.069 1386.13 579.984 1386.38 580.856C1386.62 581.727 1387.05 582.536 1387.64 583.224C1388.23 583.913 1388.96 584.465 1389.78 584.843C1390.61 585.222 1391.5 585.417 1392.41 585.415H1424.76C1427.24 585.413 1429.64 584.525 1431.53 582.91C1433.41 581.295 1434.66 579.06 1435.05 576.606L1454.47 453.647C1454.61 452.753 1454.55 451.841 1454.31 450.972C1454.06 450.103 1453.62 449.298 1453.04 448.612C1452.45 447.926 1451.72 447.376 1450.89 446.999C1450.07 446.622 1449.18 446.428 1448.28 446.429ZM1398.2 516.35C1394.75 536.874 1378.44 550.652 1357.67 550.652C1347.26 550.652 1338.9 547.306 1333.54 540.966C1328.23 534.669 1326.24 525.707 1327.91 515.724C1331.16 495.375 1347.71 481.148 1368.16 481.148C1378.37 481.148 1386.66 484.537 1392.12 490.933C1397.62 497.394 1399.79 506.411 1398.2 516.35ZM1490.63 382.311L1459.84 578.208C1459.7 579.099 1459.75 580.01 1460 580.878C1460.24 581.747 1460.67 582.552 1461.26 583.238C1461.84 583.924 1462.57 584.475 1463.39 584.852C1464.21 585.23 1465.1 585.426 1466 585.426H1496.96C1502.1 585.426 1506.47 581.696 1507.26 576.617L1537.62 384.252C1537.77 383.361 1537.71 382.449 1537.47 381.58C1537.22 380.711 1536.79 379.906 1536.21 379.219C1535.62 378.532 1534.89 377.98 1534.07 377.601C1533.25 377.222 1532.36 377.025 1531.46 377.023H1496.79C1495.31 377.029 1493.87 377.564 1492.74 378.533C1491.61 379.501 1490.86 380.841 1490.63 382.311Z" fill="#179BD7"/>
<path d="M261.706 622.804L267.443 586.363L254.663 586.067H193.639L236.047 317.166C236.174 316.345 236.591 315.596 237.223 315.056C237.855 314.517 238.661 314.222 239.492 314.227H342.388C376.547 314.227 400.121 321.335 412.429 335.365C418.199 341.947 421.874 348.825 423.651 356.394C425.516 364.336 425.549 373.825 423.728 385.398L423.596 386.243V393.658L429.366 396.927C433.771 399.159 437.731 402.178 441.049 405.835C445.985 411.462 449.178 418.614 450.527 427.094C451.92 435.815 451.459 446.192 449.178 457.941C446.545 471.455 442.289 483.226 436.541 492.857C431.469 501.485 424.65 508.958 416.521 514.797C408.886 520.216 399.814 524.329 389.557 526.962C379.619 529.551 368.287 530.856 355.858 530.856H347.851C342.124 530.856 336.563 532.919 332.197 536.615C327.837 540.352 324.945 545.514 324.035 551.183L323.432 554.463L313.296 618.691L312.835 621.049C312.715 621.795 312.506 622.168 312.199 622.42C311.901 622.664 311.53 622.799 311.146 622.804H261.706Z" fill="#253B80"/>
<path d="M434.83 387.115C434.522 389.079 434.171 391.086 433.777 393.149C420.207 462.817 373.783 486.885 314.492 486.885H284.303C277.052 486.885 270.942 492.15 269.812 499.302L254.356 597.328L249.979 625.114C249.805 626.216 249.871 627.343 250.174 628.417C250.477 629.491 251.009 630.486 251.734 631.335C252.458 632.184 253.358 632.865 254.372 633.333C255.385 633.8 256.487 634.043 257.603 634.043H311.146C317.487 634.043 322.873 629.436 323.871 623.183L324.398 620.463L334.479 556.487L335.126 552.977C336.113 546.702 341.51 542.095 347.851 542.095H355.859C407.734 542.095 448.344 521.033 460.214 460.086C465.172 434.625 462.605 413.366 449.485 398.414C445.327 393.789 440.361 389.96 434.83 387.115Z" fill="#179BD7"/>
<path d="M420.635 381.449C416.302 380.195 411.894 379.217 407.438 378.52C398.633 377.167 389.734 376.517 380.826 376.578H300.177C297.107 376.576 294.139 377.672 291.807 379.667C289.475 381.663 287.934 384.427 287.463 387.46L270.306 496.126L269.812 499.296C270.347 495.837 272.102 492.683 274.76 490.405C277.418 488.128 280.803 486.877 284.303 486.878H314.492C373.783 486.878 420.207 462.8 433.777 393.142C434.182 391.08 434.523 389.073 434.83 387.109C431.249 385.231 427.517 383.657 423.673 382.403C422.666 382.069 421.653 381.751 420.635 381.449Z" fill="#222D65"/>
<path d="M287.462 387.456C287.929 384.422 289.469 381.657 291.802 379.662C294.135 377.667 297.106 376.575 300.176 376.585H380.825C390.379 376.585 399.298 377.21 407.437 378.526C412.945 379.392 418.377 380.687 423.683 382.399C427.687 383.726 431.406 385.295 434.84 387.105C438.876 361.359 434.807 343.829 420.886 327.956C405.54 310.481 377.841 303 342.398 303H239.502C232.262 303 226.086 308.265 224.967 315.429L182.109 587.093C181.909 588.355 181.985 589.644 182.331 590.873C182.678 592.102 183.286 593.242 184.115 594.213C184.944 595.185 185.973 595.965 187.132 596.501C188.291 597.037 189.553 597.315 190.83 597.317H254.355L270.305 496.122L287.462 387.456Z" fill="#253B80"/>
</svg>
